<svg width="200" height="37" viewBox="0 0 200 37" fill="none" xmlns="http://www.w3.org/2000/svg">
<g clip-path="url(#clip0_26_1011)">
<path d="M18.1829 36.3636C28.2248 36.3636 36.3648 28.2236 36.3648 18.1818V5.45455C36.3648 4.00791 35.7901 2.62052 34.7672 1.5976C33.7442 0.574674 32.3569 0 30.9102 0L19.092 0V7.97636C19.092 9.79636 19.203 11.6818 20.1575 13.2309C20.8408 14.3411 21.755 15.2913 22.8379 16.0171C23.9209 16.7429 25.1472 17.2272 26.4339 17.4373L26.782 17.4936C26.9256 17.5427 27.0502 17.6354 27.1384 17.7588C27.2267 17.8822 27.2741 18.0301 27.2741 18.1818C27.2741 18.3335 27.2267 18.4814 27.1384 18.6048C27.0502 18.7282 26.9256 18.8209 26.782 18.87L26.4339 18.9264C24.554 19.2334 22.8181 20.1232 21.4712 21.4701C20.1244 22.817 19.2346 24.5529 18.9275 26.4327L18.8711 26.7809C18.8221 26.9245 18.7293 27.0491 18.6059 27.1373C18.4825 27.2255 18.3346 27.273 18.1829 27.273C18.0313 27.273 17.8834 27.2255 17.76 27.1373C17.6366 27.0491 17.5438 26.9245 17.4948 26.7809L17.4384 26.4327C17.2283 25.1461 16.7439 23.9198 16.0181 22.8369C15.2924 21.7539 14.3422 20.8398 13.232 20.1564C11.6829 19.2018 9.79749 19.0909 7.97749 19.0909H0.0229492C0.498404 28.71 8.44659 36.3636 18.1829 36.3636Z" fill="#6C3BFF"/>
<path d="M0 17.2727H7.97636C9.79636 17.2727 11.6818 17.1618 13.2309 16.2073C14.4418 15.4612 15.4612 14.4418 16.2073 13.2309C17.1618 11.6818 17.2727 9.79636 17.2727 7.97636V0H5.45455C4.00791 0 2.62053 0.574674 1.5976 1.5976C0.574674 2.62052 0 4.00791 0 5.45455L0 17.2727ZM42.2318 1.81818C42.2318 2.30039 42.0403 2.76286 41.6993 3.10383C41.3583 3.44481 40.8959 3.63636 40.4136 3.63636C39.9314 3.63636 39.469 3.44481 39.128 3.10383C38.787 2.76286 38.5955 2.30039 38.5955 1.81818C38.5955 1.33597 38.787 0.873508 39.128 0.532533C39.469 0.191558 39.9314 0 40.4136 0C40.8959 0 41.3583 0.191558 41.6993 0.532533C42.0403 0.873508 42.2318 1.33597 42.2318 1.81818ZM192.465 11.0036C197.547 11.0036 200 14.5536 200 18.6655V26.3882H194.681V19.5818C194.681 17.7182 194.001 16.18 192.051 16.18C190.101 16.18 189.451 17.7182 189.451 19.5818V26.3873H184.132V19.5818C184.132 17.7182 183.482 16.18 181.531 16.18C179.581 16.18 178.901 17.7182 178.901 19.5818V26.3873H173.583V18.6645C173.583 14.5527 176.035 11.0027 181.117 11.0027C183.895 11.0027 185.905 12.0973 186.821 13.9018C187.795 12.0973 189.924 11.0018 192.465 11.0018V11.0036ZM164.025 21.6545C165.738 21.6545 166.477 20.0864 166.477 18.2218V11.5945H171.795V18.8727C171.795 23.2218 169.255 26.8318 164.025 26.8318C158.794 26.8318 156.253 23.2227 156.253 18.8727V11.5945H161.572V18.2218C161.572 20.0855 162.31 21.6545 164.025 21.6545ZM148.432 26.8609C145.093 26.8609 142.935 25.7073 141.665 23.4591L145.506 21.2991C146.038 22.2455 146.835 22.7191 148.165 22.7191C149.259 22.7191 149.761 22.3345 149.761 21.8609C149.761 20.0564 141.96 21.8909 141.96 16.1518C141.96 13.37 144.324 11.1218 148.343 11.1218C151.859 11.1218 153.78 12.8373 154.637 14.4945L150.795 16.6836C150.471 15.7964 149.465 15.2636 148.461 15.2636C147.693 15.2636 147.279 15.5891 147.279 16.0327C147.279 17.8673 155.08 16.1809 155.08 21.7427C155.08 24.8491 152.036 26.8609 148.432 26.8609ZM129.848 33.1927H124.529V18.9618C124.529 14.4345 127.927 11.1509 132.655 11.1509C137.265 11.1509 140.782 14.6718 140.782 18.9618C140.782 23.6955 137.649 26.8318 132.951 26.8318C131.857 26.8318 130.765 26.5064 129.848 26.0027V33.1927ZM132.655 21.8318C134.34 21.8318 135.463 20.53 135.463 18.9909C135.463 17.4236 134.34 16.1509 132.655 16.1509C130.971 16.1509 129.848 17.4236 129.848 18.9918C129.848 20.53 130.971 21.8318 132.655 21.8318ZM119.201 10.0273C117.457 10.0273 116.01 8.57727 116.01 6.83182C116.01 5.08636 117.457 3.63636 119.201 3.63636C120.945 3.63636 122.393 5.08636 122.393 6.83182C122.393 8.57727 120.945 10.0273 119.201 10.0273ZM116.542 11.5945H121.861V26.3882H116.542V11.5945ZM106.336 26.8318C101.726 26.8318 98.21 23.2818 98.21 18.9618C98.21 14.6718 101.726 11.1218 106.336 11.1218C110.946 11.1218 114.463 14.6718 114.463 18.9618C114.463 23.2818 110.946 26.8318 106.336 26.8318ZM106.336 21.8318C108.021 21.8318 109.144 20.53 109.144 18.9909C109.144 17.4236 108.021 16.1218 106.336 16.1218C104.652 16.1218 103.529 17.4236 103.529 18.9909C103.529 20.53 104.652 21.8318 106.336 21.8318ZM88.1664 33.6364C84.5027 33.6364 81.8427 32.0091 80.4836 29.1091L84.8864 26.7427C85.3591 27.7491 86.2455 28.7845 88.0773 28.7845C89.9991 28.7845 91.2691 27.5709 91.4173 25.4409C90.7082 26.0627 89.5845 26.5355 87.9009 26.5355C83.7927 26.5355 80.4827 23.37 80.4827 18.9318C80.4827 14.6427 84 11.1509 88.61 11.1509C93.3382 11.1509 96.7364 14.4355 96.7364 18.9618V24.82C96.7364 30.1455 93.0418 33.6364 88.1664 33.6364ZM88.5209 21.5364C90.1164 21.5364 91.3282 20.4409 91.3282 18.8136C91.3282 17.2164 90.1173 16.1509 88.5209 16.1509C86.9546 16.1509 85.7136 17.2164 85.7136 18.8145C85.7136 20.4418 86.9546 21.5355 88.5209 21.5355V21.5364ZM71.4609 26.8318C66.8509 26.8318 63.3336 23.2818 63.3336 18.9618C63.3336 14.6718 66.8509 11.1218 71.4609 11.1218C76.07 11.1218 79.5873 14.6718 79.5873 18.9618C79.5873 23.2818 76.0709 26.8318 71.4609 26.8318ZM71.4609 21.8318C73.1455 21.8318 74.2682 20.53 74.2682 18.9909C74.2682 17.4236 73.1455 16.1218 71.4609 16.1218C69.7764 16.1218 68.6536 17.4236 68.6536 18.9909C68.6536 20.53 69.7764 21.8318 71.4609 21.8318ZM53.6482 6.41818V21.3582H62.4545V26.3882H52.9091C49.5409 26.3882 48.1818 24.6127 48.1818 21.8018V6.41818H53.6482Z" fill="#1C1C1C"/>
</g>
<defs>
<clipPath id="clip0_26_1011">
<rect width="200" height="36.3636" fill="white"/>
</clipPath>
</defs>
</svg>
